<svg xmlns="http://www.w3.org/2000/svg" viewBox="0 0 90 28" fill="none"><rect width="90" height="28" fill="#0A0A0B"/><path fill-rule="evenodd" clip-rule="evenodd" d="M80.65225 10.63125V12.9567H90V10.883625H83.47825L89.81875 2.5012V0.157733H80.83325V2.230805H86.99275L80.65225 10.63125ZM50.5725 21.203925C50.5725 25.314 53.10875 28 56.9855 28C60.84425 28 63.3805 25.296 63.3805 21.203925C63.3805 17.09385 60.84425 14.40785 56.9855 14.40785C53.10875 14.40785 50.5725 17.09385 50.5725 21.203925ZM60.75375 21.203925C60.75375 23.944 59.26825 25.74675 56.9855 25.74675C54.703 25.74675 53.2175 23.944 53.2175 21.203925C53.2175 18.463875 54.703 16.6612 56.9855 16.6612C59.26825 16.6612 60.75375 18.463875 60.75375 21.203925ZM67.233 27.6035L63.1025 14.80445H65.856L68.86325 25.0435H68.8995L71.88875 14.80445H74.62425L70.512 27.6035H67.233ZM73.11225 27.6035L77.279 14.80445H80.558L84.74275 27.6035H82.0435L81.22825 24.917425H76.60875L75.7935 27.6035H73.11225ZM77.07975 22.9345H80.75725L78.96375 17.021725H78.9275L77.07975 22.9345ZM38.945 27.6035V14.80445H42.2785L46.87975 24.39465H46.916V14.80445H49.416V27.6035H46.10075L41.48125 18.031225H41.445V27.6035H38.945ZM26.90075 14.80445V27.6035H29.40075V18.031225H29.437L34.0565 27.6035H37.37175V14.80445H34.87175V24.39465H34.8355L30.234 14.80445H26.90075ZM68.99375 12.9567L73.16025 0.157733H76.43925L80.62425 12.9567H77.92475L77.10975 10.270725H72.49L71.67475 12.9567H68.99375ZM72.961 8.287775H76.63875L74.84525 2.37502H74.809L72.961 8.287775ZM64.372 11.514575C64.6435 12.560125 65.3865 13.2992 66.564 13.2992C67.506 13.2992 68.3755 12.866575 68.95525 12.199575L68.19425 10.883625C67.9225 11.2622 67.65075 11.44245 67.37925 11.44245C67.07125 11.44245 66.89 11.17205 66.78125 10.7935L66.31025 8.9728C66.14725 8.287775 65.82125 7.765 65.169 7.45855V7.440525C66.9625 7.0259 68.03125 5.6739 68.03125 4.069525C68.03125 1.70803 66.16525 0.157733 63.3755 0.157733H57.995V12.9567H60.64V7.8912H62.30675C62.94075 7.8912 63.5205 8.413975 63.73775 9.153075L64.372 11.514575ZM63.19425 5.9443H60.64V2.21278H63.19425C64.49875 2.21278 65.4045 2.93385 65.4045 4.105575C65.4045 5.205225 64.4805 5.9443 63.19425 5.9443ZM51.057 12.9567V2.4110725H47.59675V0.157733H57.162V2.4110725H53.702V12.9567H51.057ZM41.62725 0.157733L37.46075 12.9567H40.14175L40.957 10.270725H45.5765L46.39175 12.9567H49.091L44.90625 0.157733H41.62725ZM45.1055 8.287775H41.428L43.27575 2.37502H43.312L45.1055 8.287775ZM22.67605 12.9567V0.157733H26.263L29.705 9.964275H29.72325L33.147 0.157733H36.734V12.9567H34.25225V3.564775H34.216L30.8645 12.9567H28.5455L25.19425 3.564775H25.158V12.9567H22.67605Z" fill="white"/>
<path d="M25.321 14.80445H22.67605V27.6035H25.321V14.80445Z" fill="white"/>
<path d="M16.852175 2.25334H17.317675V0H16.852175C15.288875 0 14.021575 1.2610675 14.021575 2.816675V6.8868C14.021575 7.370375 14.146675 7.845775 14.38485 8.267275L20.676575 19.402075V14.80445L16.358725 7.1629C16.311075 7.0786 16.28605 6.983525 16.28605 6.8868V2.816675C16.28605 2.50555 16.539525 2.25334 16.852175 2.25334Z" fill="white"/>
<path d="M0.367395 23.406275C-0.6935475 25.28375 0.6700325 27.6035 2.83475 27.6035L20.676575 27.6035V25.35H2.83475C2.4017925 25.35 2.129085 24.88615 2.34127 24.51065L11.5196 8.267275C11.757775 7.845775 11.882875 7.370375 11.882875 6.8868V2.816675C11.882875 1.2610625 10.61555 0 9.05225 0H8.586775V2.25334H9.05225C9.364925 2.25334 9.618375 2.50555 9.618375 2.816675V6.8868C9.618375 6.983525 9.59335 7.0786 9.545725 7.1629L0.367395 23.406275Z" fill="white"/></svg>