<?xml version="1.0" encoding="UTF-8" standalone="no"?>
<!-- Created with Inkscape (http://www.inkscape.org/) -->

<svg
   width="225.09363mm"
   height="36.515797mm"
   viewBox="0 0 225.09363 36.515797"
   version="1.1"
   id="svg5"
   xml:space="preserve"
   sodipodi:docname="Toblerone2022.svg"
   inkscape:version="1.2.1 (9c6d41e410, 2022-07-14)"
   inkscape:export-filename="Toblerone2022.png"
   inkscape:export-xdpi="96"
   inkscape:export-ydpi="96"
   xmlns:inkscape="http://www.inkscape.org/namespaces/inkscape"
   xmlns:sodipodi="http://sodipodi.sourceforge.net/DTD/sodipodi-0.dtd"
   xmlns:xlink="http://www.w3.org/1999/xlink"
   xmlns="http://www.w3.org/2000/svg"
   xmlns:svg="http://www.w3.org/2000/svg"><sodipodi:namedview
     id="namedview7"
     pagecolor="#ffffff"
     bordercolor="#000000"
     borderopacity="0.25"
     inkscape:showpageshadow="2"
     inkscape:pageopacity="0.0"
     inkscape:pagecheckerboard="0"
     inkscape:deskcolor="#d1d1d1"
     inkscape:document-units="mm"
     showgrid="true"
     inkscape:zoom="0.70710678"
     inkscape:cx="133.64318"
     inkscape:cy="186.67619"
     inkscape:window-width="1920"
     inkscape:window-height="1009"
     inkscape:window-x="-8"
     inkscape:window-y="-8"
     inkscape:window-maximized="1"
     inkscape:current-layer="layer1" /><defs
     id="defs2"><linearGradient
       inkscape:collect="always"
       id="linearGradient20798"><stop
         style="stop-color:#dd8f2d;stop-opacity:1;"
         offset="0"
         id="stop20794" /><stop
         style="stop-color:#fed069;stop-opacity:1;"
         offset="0.24722223"
         id="stop20802" /><stop
         style="stop-color:#dd902d;stop-opacity:1;"
         offset="0.65000004"
         id="stop20804" /><stop
         style="stop-color:#f6c864;stop-opacity:1;"
         offset="1"
         id="stop20796" /></linearGradient><linearGradient
       inkscape:collect="always"
       xlink:href="#linearGradient20798"
       id="linearGradient20800"
       x1="99.48333"
       y1="43.523956"
       x2="99.48333"
       y2="74.480209"
       gradientUnits="userSpaceOnUse"
       gradientTransform="matrix(1.0598553,0,0,1.0598553,-0.38094762,-2.6023053)" /></defs><g
     inkscape:label="Layer 1"
     inkscape:groupmode="layer"
     id="layer1"
     transform="translate(-6.3569997,-43.47656)"><g
       id="g507"
       transform="matrix(1.0631827,0,0,1.0631827,-0.40165245,-2.7469667)"><path
         id="path5969-6"
         style="color:#000000;fill:#000000;fill-opacity:1;stroke:none;stroke-width:1.05986;stroke-linecap:round;stroke-opacity:1;paint-order:stroke fill markers"
         d="m 31.15807,43.47656 -0.610816,0.0021 -24.1902543,0.05581 v 6.152079 5.17e-4 h 5.168e-4 l 1.5502929,1.493965 0.9131226,-0.528133 c 0.1539094,-0.08886 0.4412492,-0.223515 0.7141683,-0.322978 0.2729091,-0.09947 0.5665517,-0.157096 0.6082317,-0.157096 h 3.897436 v 23.77891 c 0,0.236515 -0.166071,0.931548 -0.407727,1.544092 l -0.327111,0.832508 h 5.16e-4 l 1.550293,1.493965 H 25.762017 L 25.432838,76.98976 c -0.26486,-0.671581 -0.519865,-1.392588 -0.519865,-1.544092 V 50.172792 h 5.539714 c 0.366657,0.01273 0.95108,0.253758 1.34307,0.480074 l 0.913123,0.528133 v -6.210473 z m 8.940539,5.448246 c -7.002207,-6.3e-5 -12.693544,5.689525 -12.693798,12.691732 -3.1e-5,3.375253 1.324791,6.443474 3.478857,8.718848 l -0.0052,-5.17e-4 0.0646,0.06305 c 0.216132,0.225241 0.439206,0.443793 0.671277,0.652674 l 1.183907,1.152384 5.17e-4,-0.0036 c 2.287972,2.228246 5.410052,3.604462 8.850622,3.604431 7.002429,6.4e-5 12.691275,-5.690852 12.691215,-12.693282 -1.28e-4,-3.598166 -1.504902,-6.847571 -3.915523,-9.158614 l 0.0078,0.0026 -1.399397,-1.346171 v 0.0021 C 46.738889,50.33369 43.581629,48.924847 40.09863,48.924878 Z m 116.416151,0 c -7.0022,-6.3e-5 -12.69302,5.689525 -12.69328,12.691732 -4e-5,3.823538 1.69909,7.253338 4.37957,9.581844 l 0.6749,0.656808 c 2.31327,2.429865 5.57544,3.948629 9.18962,3.948596 7.00243,6.4e-5 12.6918,-5.690852 12.69173,-12.693282 -1.3e-4,-3.602238 -1.50825,-6.854837 -3.92379,-9.166366 l 0.0341,0.01033 -1.39889,-1.346171 0.002,0.02119 c -2.29636,-2.288406 -5.46242,-3.704715 -8.95552,-3.704684 z m -38.98677,0.552938 -0.60875,0.0021 -18.122921,0.01654 0.577225,0.929659 c 0.04345,0.06997 0.149589,0.318329 0.219625,0.542085 0.07003,0.223759 0.11166,0.504123 0.109554,0.434599 V 71.85674 c 0.0021,-0.06934 -0.03952,0.208768 -0.109554,0.432532 -0.07004,0.223762 -0.176181,0.474709 -0.219625,0.544669 l -0.577225,0.929659 1.550811,1.493966 h 19.96519 v -9.919808 l -1.55081,-1.493966 -0.95188,0.645956 c -0.16293,0.110792 -1.10214,0.457336 -2.26085,0.457336 h -6.73964 v -1.298629 h 7.21403 v -5.117 l -1.55081,-1.493966 h -5.66322 v -0.876432 h 8.15403 c 0.84154,0 1.48327,0.355278 2.11563,0.72037 V 50.97171 Z m 97.76148,0 -0.60875,0.0021 -18.12293,0.01654 0.57723,0.929659 c 0.0434,0.06997 0.14959,0.318329 0.21962,0.542085 0.07,0.223759 0.11166,0.504123 0.10956,0.434599 V 71.85674 c 0.002,-0.06934 -0.0395,0.208768 -0.10956,0.432532 -0.07,0.223762 -0.17618,0.474709 -0.21962,0.544669 l -0.57723,0.929659 1.55081,1.493966 h 19.96519 v -9.919808 l -1.55081,-1.493966 -0.95188,0.645956 c -0.16293,0.110792 -1.10213,0.457336 -2.26084,0.457336 h -6.73964 v -1.298629 h 7.21403 v -5.117 l -1.55081,-1.493966 h -5.66322 v -0.876432 h 8.15402 c 0.84154,0 1.48328,0.355278 2.11564,0.72037 V 50.97171 Z m -161.187064,0.0021 0.577226,0.929659 c 0.04337,0.06985 0.151651,0.318184 0.221691,0.542086 0.07005,0.223902 0.109592,0.504106 0.107487,0.434599 v 20.454048 c 0.0021,-0.06934 -0.03745,0.210835 -0.107487,0.434599 -0.07003,0.223765 -0.178249,0.472642 -0.221691,0.542603 l -0.577226,0.931209 1.55081,1.493966 h 14.21877 c 5.320625,0 8.321456,-3.680339 8.321456,-7.366992 0,-1.516307 -0.45206,-2.853123 -1.413867,-4.01991 -0.154042,-0.186871 -0.328358,-0.368828 -0.512631,-0.548287 l 0.0041,-0.0016 -0.09767,-0.09043 c -0.03161,-0.0298 -0.06371,-0.05978 -0.09612,-0.0894 l -0.955497,-0.884701 c -0.33043,-0.380404 -0.733553,-0.742778 -1.184941,-1.097091 l -0.07338,-0.06821 v 0.0072 c -0.0526,-0.0406 -0.100979,-0.0821 -0.155029,-0.122473 2.024262,-1.307685 2.983562,-3.424287 2.690275,-5.422408 -0.178997,-1.219444 -0.808552,-2.364197 -1.828829,-3.202388 l -1.101741,-1.07487 c -0.06515,-0.06755 -0.133213,-0.132797 -0.202572,-0.197404 l -0.101286,-0.0987 -0.0036,0.0041 C 72.137856,50.06581 70.692302,49.479734 68.882362,49.479734 Z m 23.877612,0 0.577743,0.931726 c 0.04345,0.06997 0.151139,0.318328 0.221175,0.542086 0.07004,0.223758 0.110109,0.502054 0.108003,0.432532 v 20.454048 c 0.0021,-0.06934 -0.03796,0.210835 -0.108003,0.434599 -0.07003,0.223765 -0.177729,0.472642 -0.221175,0.542603 l -0.577743,0.931209 1.55081,1.493966 h 19.077388 v -9.977169 l -1.550809,-1.494483 v 5.17e-4 l -0.952397,0.647506 c -0.24223,0.164725 -1.160604,0.506699 -1.384412,0.511597 H 87.995427 V 52.882187 c -0.002,0.0654 0.04499,-0.198411 0.124024,-0.413928 0.0802,-0.21878 0.201001,-0.459125 0.250631,-0.527616 l 0.699698,-0.966866 -1.550809,-1.493966 z m 42.750362,0 0.57723,0.929659 c 0.0435,0.06998 0.15165,0.318329 0.22169,0.542086 0.0701,0.223756 0.10959,0.504167 0.10748,0.434599 v 20.454048 c 0.002,-0.07023 -0.0375,0.210721 -0.10748,0.434599 -0.0701,0.223878 -0.17828,0.472691 -0.22169,0.542603 l -0.57723,0.931209 1.55081,1.493966 h 9.30279 l -0.52813,-0.914673 c 0.0279,0.04825 -0.0229,-0.05046 -0.0599,-0.155029 -0.0372,-0.104564 -0.0798,-0.23885 -0.11989,-0.371037 -0.0401,-0.132186 -0.0788,-0.264384 -0.10387,-0.364319 -0.025,-0.09993 -0.0269,-0.241379 -0.0269,-0.09508 V 63.006634 c 0.16125,0.07404 0.30347,0.139153 0.47439,0.20929 0.29075,0.150124 0.56545,0.32564 0.83199,0.51418 1.57777,2.044437 2.37804,5.172433 2.12132,9.399943 l -0.0393,0.65164 v 5.17e-4 h 5.1e-4 l 1.5503,1.493965 10.17405,-0.06873 -0.4594,-0.883667 c -0.24539,-0.471869 -0.36639,-0.671254 -0.52555,-1.900143 -0.16093,-1.415835 -0.18032,-3.481386 -0.91519,-5.616194 -0.54552,-1.584724 -1.6404,-3.166552 -3.36155,-4.560445 -0.26819,-0.310858 -0.55938,-0.616748 -0.88005,-0.91519 2.43349,-1.329847 3.6043,-3.613041 3.31659,-5.758305 -0.16599,-1.237727 -0.79955,-2.393472 -1.82831,-3.237012 h 10e-4 L 140.11266,51.2704 c -0.0678,-0.07055 -0.13896,-0.138347 -0.21136,-0.205673 l -0.10128,-0.09922 -0.003,0.0036 c -1.02673,-0.905031 -2.47868,-1.489193 -4.2845,-1.489315 z m 49.80265,0 0.57774,0.929659 c 0.0435,0.06998 0.15114,0.318328 0.22117,0.542086 0.0701,0.223758 0.11011,0.504123 0.10801,0.434599 v 20.454048 c 0.002,-0.07026 -0.0379,0.211011 -0.10801,0.434599 -0.07,0.223589 -0.17758,0.472433 -0.22117,0.542603 l -0.57774,0.931209 1.5508,1.493966 h 8.62997 l -0.70383,-0.968417 c 0.0253,0.0348 -0.14579,-0.342362 -0.22945,-0.654223 -0.0419,-0.155933 -0.0778,-0.308399 -0.1018,-0.424264 -0.024,-0.115864 -0.0289,-0.291237 -0.0289,-0.132808 v -7.772652 l 5.1232,8.458398 1.55081,1.493966 h 9.62784 l -0.57774,-0.93121 c -0.0435,-0.06997 -0.15167,-0.318843 -0.2217,-0.542602 -0.0701,-0.223758 -0.10959,-0.504109 -0.10748,-0.434599 V 52.88012 c -0.002,0.07025 0.0375,-0.208948 0.10748,-0.432531 0.0701,-0.223587 0.17813,-0.471925 0.2217,-0.542086 l 0.57774,-0.931726 -1.55081,-1.493966 h -8.62997 l 0.70384,0.968933 c -0.0253,-0.03481 0.14579,0.339773 0.22944,0.65164 0.0419,0.155932 0.0778,0.310985 0.1018,0.426847 0.0241,0.115865 0.0289,0.29074 0.0289,0.132292 v 7.07347 l -4.67413,-7.759216 -1.55081,-1.493966 z M 40.680486,55.780202 c 0.825971,0 1.596322,0.223768 2.260844,0.608748 0.439228,0.696083 0.697115,1.519101 0.697115,2.406055 0,2.497036 -2.011731,4.508252 -4.508769,4.508252 -0.825872,0 -1.596447,-0.223409 -2.260844,-0.608232 -0.439259,-0.696062 -0.696598,-1.518969 -0.696598,-2.406055 0,-2.497032 2.011221,-4.508768 4.508252,-4.508768 z m 116.416664,0 c 0.82609,0 1.59634,0.223671 2.26085,0.608748 0.43911,0.696068 0.69659,1.519132 0.69659,2.406055 0,2.497036 -2.01119,4.508252 -4.50825,4.508252 -0.82613,0 -1.59675,-0.223705 -2.26136,-0.608749 -0.4392,-0.695984 -0.6966,-1.518611 -0.6966,-2.405538 0,-2.497031 2.01176,-4.508768 4.50877,-4.508768 z m -92.979852,0.337447 h 3.346566 c -0.110484,0.152107 -0.248177,0.298212 -0.423747,0.429431 -0.402031,0.300474 -0.931489,0.46304 -1.289843,0.480074 l -1.632976,-0.678511 z m 66.627972,0 h 3.3104 c -0.12119,0.153129 -0.26965,0.303588 -0.45993,0.439766 -0.44465,0.318235 -1.01836,0.493734 -1.38079,0.519348 l -1.46968,-0.661975 z m -66.627972,6.713285 3.893303,1.615405 c -0.02779,0.08684 -0.07381,0.166651 -0.173633,0.243913 -0.160507,0.124226 -0.457988,0.240296 -0.917257,0.240296 h -2.802413 z" /><path
         id="path5969"
         style="color:#000000;fill:url(#linearGradient20800);fill-opacity:1;stroke:none;stroke-width:1.05986;stroke-linecap:round;stroke-opacity:1;paint-order:stroke fill markers"
         d="m 31.15807,43.47656 -0.610816,0.0021 -24.1902543,0.05581 v 6.152079 L 7.2701223,49.1589 C 7.4240348,49.07004 7.7113718,48.935386 7.9842906,48.835923 8.2572094,48.736453 8.5508399,48.67831 8.5925222,48.67831 h 5.4482458 v 25.273392 c 0,0.236515 -0.166071,0.931546 -0.407727,1.544092 L 13.30593,76.327785 H 24.211207 L 23.882028,75.495794 C 23.617161,74.824211 23.362163,74.103206 23.362163,73.951702 V 48.67831 h 5.539714 c 0.366654,0.01273 0.951082,0.254275 1.34307,0.48059 l 0.913123,0.527617 z m -1.21698,1.223181 v 3.094902 c -0.334223,-0.130706 -0.604397,-0.321718 -0.997872,-0.33538 h -0.01034 -6.7877 v 26.492439 c 0,0.417791 0.200585,0.780464 0.34985,1.159103 h -7.522539 c 0.115513,-0.394198 0.285771,-0.807064 0.285771,-1.159103 V 47.459263 H 8.5925222 c -0.3651392,0 -0.6818182,0.108149 -1.0164755,0.22996 v -2.937289 z m 10.157519,4.225065 c -7.002228,-6.3e-5 -12.693544,5.688987 -12.693798,12.691215 -6.4e-5,7.002451 5.691346,12.693863 12.693798,12.693799 7.002452,6.4e-5 12.691279,-5.691348 12.691215,-12.693799 -2.55e-4,-7.002228 -5.688986,-12.691278 -12.691215,-12.691215 z m 116.416151,0 c -7.00223,-6.3e-5 -12.69302,5.688987 -12.69328,12.691215 -6e-5,7.00245 5.69082,12.693863 12.69328,12.693799 7.00245,6.4e-5 12.6918,-5.691348 12.69173,-12.693799 -2.6e-4,-7.002228 -5.6895,-12.691278 -12.69173,-12.691215 z m -38.98677,0.552938 -0.60875,0.0021 -18.122921,0.01654 0.577225,0.929142 c 0.04345,0.06997 0.149589,0.318844 0.219625,0.542602 0.07003,0.223759 0.11166,0.504123 0.109554,0.434599 V 71.85674 c 0.0021,-0.06934 -0.03952,0.208768 -0.109554,0.432532 -0.07004,0.223764 -0.176181,0.474709 -0.219625,0.544669 l -0.577225,0.929142 h 19.965191 v -9.919291 l -0.95188,0.645439 c -0.16293,0.110792 -1.10214,0.457853 -2.26085,0.457853 h -8.29045 V 62.15449 h 7.21403 v -5.117001 h -7.21403 v -2.370398 h 8.15403 c 0.84872,0 1.70279,0.614307 2.11563,0.852662 z m 97.76148,0 -0.60875,0.0021 -18.12344,0.01654 0.57774,0.929659 c 0.0434,0.06997 0.14958,0.318327 0.21962,0.542085 0.07,0.223759 0.11166,0.504123 0.10956,0.434599 V 71.85674 c 0.002,-0.06934 -0.0395,0.208768 -0.10956,0.432532 -0.07,0.223764 -0.17618,0.474709 -0.21962,0.544669 l -0.57774,0.929659 h 19.9657 v -9.919808 l -0.95239,0.645956 c -0.16293,0.110792 -1.10162,0.457336 -2.26033,0.457336 h -8.29045 V 62.15449 h 7.21403 v -5.117001 h -7.21403 v -2.369881 h 8.15402 c 0.84872,0 1.7028,0.614307 2.11564,0.852661 z m -161.187064,0.0021 0.577226,0.929142 c 0.04337,0.06985 0.151649,0.3187 0.221691,0.542603 0.07005,0.223902 0.109592,0.504106 0.107487,0.434599 v 20.454048 c 0.0021,-0.06934 -0.03744,0.210835 -0.107487,0.434599 -0.07003,0.223765 -0.178247,0.472642 -0.221691,0.542603 l -0.577226,0.931209 h 14.21877 c 5.32064,0 8.321456,-3.680328 8.321456,-7.366992 0,-1.516311 -0.452062,-2.85312 -1.413867,-4.01991 -0.789579,-0.957858 -1.990294,-1.807483 -3.458704,-2.660303 2.289408,-1.278324 3.389327,-3.535531 3.077849,-5.657535 -0.356709,-2.430141 -2.501742,-4.564063 -5.965528,-4.564063 z m 23.877612,0 0.577743,0.931209 c 0.04345,0.06997 0.151139,0.318845 0.221175,0.542603 0.07004,0.223759 0.110109,0.502054 0.108003,0.432532 v 20.454048 c 0.0021,-0.06934 -0.03796,0.210835 -0.108003,0.434599 -0.07003,0.223765 -0.177729,0.472642 -0.221175,0.542603 l -0.577743,0.931209 h 19.077389 v -9.977686 l -0.952397,0.648023 c -0.24223,0.164725 -1.160604,0.506699 -1.384412,0.511597 h -8.27598 V 51.388222 c -0.0023,0.0654 0.04501,-0.198412 0.124023,-0.413928 0.08021,-0.21878 0.201008,-0.459643 0.250631,-0.528134 l 0.699699,-0.966349 z m 42.750362,0 0.57723,0.929142 c 0.0435,0.06998 0.15165,0.318845 0.22169,0.542603 0.0701,0.223756 0.10959,0.504167 0.10748,0.434599 v 20.454048 c 0.002,-0.07023 -0.0374,0.210721 -0.10748,0.434599 -0.0701,0.223878 -0.17828,0.472691 -0.22169,0.542603 l -0.57723,0.931209 h 9.30279 l -0.52813,-0.914673 c 0.0279,0.04825 -0.0228,-0.05097 -0.06,-0.155546 -0.0372,-0.104565 -0.0798,-0.238333 -0.11989,-0.37052 -0.0401,-0.132186 -0.0788,-0.264384 -0.10387,-0.364319 -0.025,-0.09993 -0.0269,-0.241368 -0.0269,-0.09508 V 61.512668 c 0.16125,0.07404 0.30347,0.139152 0.47439,0.20929 3.10722,1.60439 4.86887,5.401633 4.50412,11.408089 l -0.0393,0.65164 10.17405,-0.06821 -0.4594,-0.883667 c -0.24539,-0.471868 -0.36639,-0.671767 -0.52555,-1.900659 -0.16093,-1.415842 -0.18031,-3.480863 -0.91519,-5.615678 -0.65302,-1.897002 -2.07938,-3.793702 -4.44417,-5.363497 2.57389,-1.311218 3.8149,-3.665319 3.51916,-5.870443 -0.33006,-2.461176 -2.50612,-4.599486 -5.97018,-4.599719 z m 49.80265,0 0.57774,0.929142 c 0.0435,0.06998 0.15114,0.318844 0.22117,0.542603 0.0701,0.223758 0.11011,0.504123 0.10801,0.434599 v 20.454048 c 0.002,-0.07026 -0.038,0.211011 -0.10801,0.434599 -0.07,0.223589 -0.17758,0.472433 -0.22117,0.542603 l -0.57774,0.931209 h 8.62996 l -0.70383,-0.968933 c 0.0253,0.0348 -0.14579,-0.341842 -0.22945,-0.653707 -0.0419,-0.155933 -0.0778,-0.308915 -0.1018,-0.42478 -0.024,-0.115864 -0.0289,-0.290721 -0.0289,-0.132292 v -8.838737 l 6.67401,11.018449 h 9.62784 l -0.57774,-0.931209 c -0.0435,-0.06997 -0.15167,-0.318844 -0.2217,-0.542603 -0.0701,-0.223758 -0.10959,-0.504109 -0.10748,-0.434599 V 51.386155 c -0.002,0.07025 0.0374,-0.208945 0.10748,-0.432532 0.0701,-0.223587 0.17813,-0.472442 0.2217,-0.542603 l 0.57774,-0.931209 h -8.62997 l 0.70384,0.968416 c -0.0253,-0.03481 0.14579,0.34029 0.22944,0.652157 0.0419,0.155933 0.0778,0.310466 0.1018,0.426331 0.0241,0.115865 0.0289,0.291257 0.0289,0.132808 v 8.153508 l -6.22494,-10.33322 z M 40.098609,50.143853 c 6.343532,-5.7e-5 11.471937,5.128637 11.472168,11.472168 5.8e-5,6.343736 -5.128432,11.474293 -11.472168,11.474235 -6.343736,5.8e-5 -11.474292,-5.130499 -11.474235,-11.474235 2.31e-4,-6.343531 5.130703,-11.472225 11.474235,-11.472168 z m 116.416151,0 c 6.34353,-5.7e-5 11.47195,5.128635 11.47217,11.472168 7e-5,6.343736 -5.12844,11.474293 -11.47217,11.474235 -6.34373,5.8e-5 -11.47428,-5.130498 -11.47424,-11.474235 2.4e-4,-6.343533 5.13071,-11.472225 11.47424,-11.472168 z M 56.087298,50.696791 h 12.795084 c 2.985844,0 4.485223,1.658944 4.758883,3.523299 0.27366,1.864355 -0.716552,3.968573 -3.280937,4.884973 l -1.304313,0.466122 1.225765,0.645955 c 1.909217,1.00762 3.208101,1.948906 4.007507,2.918685 0.799405,0.969778 1.134298,1.957917 1.134298,3.245797 0,3.043389 -2.327971,6.147945 -7.102409,6.147945 H 56.087298 c 0.06948,-0.222399 0.13364,-0.408293 0.141076,-0.652157 v -0.0083 -20.509859 -0.0083 c -0.0074,-0.244748 -0.07127,-0.430791 -0.141076,-0.654224 z m 60.221642,0 v 2.991032 c -0.25765,-0.0897 -0.45899,-0.207681 -0.7953,-0.237712 l -0.0269,-0.0021 h -9.44748 v 4.808492 h 7.21403 v 2.67839 h -7.21403 v 5.229138 h 9.50949 c 0.91719,0 1.41833,-0.248085 1.99368,-0.451135 v 6.833174 h -16.76332 c 0.0698,-0.223207 0.13363,-0.407656 0.14108,-0.652156 l 0.002,-0.01033 V 51.375819 l -0.002,-0.01033 c -0.007,-0.244022 -0.0716,-0.429762 -0.14108,-0.652156 z m 6.40633,0 h 12.79715 c 2.98507,2.02e-4 4.50891,1.664591 4.76095,3.54397 0.25205,1.87938 -0.80189,4.034624 -3.59358,5.032251 l -1.27279,0.455269 1.18391,0.652157 c 2.75119,1.516504 4.00524,3.41738 4.6638,5.330424 0.65854,1.913043 0.68213,3.837231 0.85679,5.365564 v 0.0062 l 0.002,0.0041 c 0.10451,0.806981 0.25979,1.038744 0.40153,1.420068 l -7.14582,0.04754 c 0.20349,-5.909973 -1.63749,-10.105606 -5.14181,-11.915035 l -0.0248,-0.01447 -0.0269,-0.01034 c -0.41412,-0.166487 -0.86959,-0.406416 -1.36426,-0.604614 l -0.83612,-0.333313 v 12.171867 c 0,0.224663 0.0322,0.263255 0.0641,0.39119 0.022,0.08818 0.0516,0.18985 0.0806,0.289905 h -5.40484 c 0.0695,-0.222473 0.13386,-0.407532 0.14108,-0.652157 v -0.01033 -20.507792 -0.01033 c -0.007,-0.244697 -0.0713,-0.428956 -0.14108,-0.652157 z m 49.80316,0 7.40214,0.0021 8.13335,13.500985 v -12.54032 c 0,-0.223715 -0.0266,-0.239719 -0.0558,-0.380855 -0.0293,-0.141138 -0.0673,-0.312462 -0.11576,-0.492993 -0.008,-0.02978 -0.028,-0.05727 -0.0357,-0.08682 h 4.56871 c -0.0695,0.222284 -0.13334,0.407516 -0.14056,0.652157 v 0.0083 20.509859 0.0083 c 0.007,0.244015 0.071,0.42976 0.14056,0.652157 h -6.95513 L 176.87992,58.36609 v 13.202812 c 0,0.223699 0.0266,0.237651 0.0558,0.378788 0.0292,0.141138 0.0693,0.31453 0.11782,0.495061 0.008,0.0298 0.0274,0.05725 0.0351,0.08682 h -4.57027 c 0.0695,-0.222281 0.13334,-0.407505 0.14056,-0.652157 v -0.0083 -20.509859 -0.01033 c -0.007,-0.244658 -0.0708,-0.428955 -0.14056,-0.652157 z m 41.55147,0 v 2.991549 c -0.25765,-0.0897 -0.45847,-0.208198 -0.79478,-0.238229 l -0.0269,-0.0021 h -9.44749 v 4.808492 h 7.21403 v 2.678907 h -7.21403 v 5.228621 h 9.5095 c 0.91719,0 1.41833,-0.248085 1.99368,-0.451135 v 6.833174 h -16.76332 c 0.0698,-0.223207 0.13311,-0.407656 0.14056,-0.652156 l 0.002,-0.01033 V 51.375819 l -0.002,-0.01033 c -0.007,-0.244022 -0.0711,-0.429762 -0.14056,-0.652156 z m -134.104473,0.0021 h 5.421374 c -0.07553,0.208594 -0.149312,0.3903 -0.161747,0.633553 v 0.01447 14.802714 h 9.514148 0.0083 c 0.40873,-0.0089 0.72065,-0.23539 1.09089,-0.38499 V 72.5296 H 79.965427 c 0.06948,-0.222399 0.133124,-0.408293 0.14056,-0.652157 v -0.0083 -20.509859 -0.0083 c -0.0074,-0.244021 -0.07106,-0.429762 -0.14056,-0.652157 z m -40.835751,2.370398 c -3.155752,0 -5.725748,2.569999 -5.725748,5.725749 0,3.155752 2.569996,5.727816 5.725748,5.727816 3.155751,0 5.727816,-2.572064 5.727816,-5.727816 0,-3.15575 -2.572064,-5.725749 -5.727816,-5.725749 z m 116.416664,0 c -3.15574,0 -5.72575,2.569998 -5.72575,5.725749 0,3.155753 2.57001,5.727816 5.72575,5.727816 3.15576,0 5.7273,-2.572065 5.7273,-5.727816 0,-3.15575 -2.57154,-5.725749 -5.7273,-5.725749 z m -22.27977,0.334863 -5.29115,5.17e-4 v 0.610299 2.490287 l 4.04678,1.821594 0.13694,-0.0021 c 0.71384,-0.0122 1.48026,-0.302827 2.14457,-0.778247 0.6643,-0.475419 1.25626,-1.187 1.25626,-2.101164 0,-0.582179 -0.30687,-1.078797 -0.72037,-1.438671 -0.41349,-0.359873 -0.96369,-0.602548 -1.57303,-0.602548 z m -71.919128,5.17e-4 v 0.610299 2.502689 l 4.218864,1.751315 h 0.121956 c 0.709027,-6.24e-4 1.451564,-0.275121 2.080493,-0.745174 0.628929,-0.470056 1.163237,-1.186868 1.163237,-2.078427 1e-6,-0.582179 -0.306832,-1.078944 -0.72037,-1.438671 -0.413538,-0.359726 -0.96174,-0.602031 -1.570963,-0.602031 z m -22.217766,0.8816 c 2.497044,0 4.508769,2.011727 4.508769,4.508769 0,2.497044 -2.011725,4.508252 -4.508769,4.508252 -2.497042,0 -4.508252,-2.011208 -4.508252,-4.508252 0,-2.497042 2.01121,-4.508769 4.508252,-4.508769 z m 116.416664,0 c 2.49706,0 4.50825,2.011727 4.50825,4.508769 0,2.497044 -2.01119,4.508252 -4.50825,4.508252 -2.49703,0 -4.50877,-2.011209 -4.50877,-4.508252 0,-2.497041 2.01174,-4.508769 4.50877,-4.508769 z m -92.979851,0.337447 h 4.07417 c 0.273828,0 0.565088,0.122281 0.772045,0.302307 0.206956,0.180027 0.299724,0.400484 0.299724,0.519348 0,0.39677 -0.250386,0.785884 -0.672311,1.101225 -0.402033,0.300475 -0.931486,0.463557 -1.289843,0.480591 L 62.566489,55.70427 Z m 66.627971,0 h 4.07211 c 0.2737,0 0.56504,0.122154 0.77204,0.302307 0.20699,0.180153 0.30231,0.400485 0.30231,0.519348 0,0.362688 -0.27584,0.775662 -0.74518,1.111561 -0.44467,0.318234 -1.01836,0.49425 -1.38079,0.519864 l -3.02049,-1.360123 z M 61.347442,59.51334 v 0.910539 5.725749 h 5.572269 c 0.662409,0 1.234168,-0.165154 1.662431,-0.496611 0.428265,-0.331458 0.68523,-0.84537 0.68523,-1.374593 v -0.0083 -0.0083 c -0.01397,-0.527954 -0.270038,-1.027007 -0.654224,-1.370459 -0.384186,-0.343454 -0.867622,-0.610658 -1.527555,-0.991671 l -0.03514,-0.02067 z m 1.219047,1.823662 3.931026,1.630908 c 0.641772,0.370899 1.086426,0.639052 1.302246,0.83199 0.215918,0.193025 0.236762,0.24464 0.243913,0.486792 -0.002,0.16622 -0.04941,0.281853 -0.206706,0.403593 -0.160507,0.124226 -0.457988,0.240296 -0.917257,0.240296 h -4.353222 z" /><path
         id="path5971"
         style="color:#000000;fill:#da2b1f;stroke-width:1.21883;stroke-linecap:round;paint-order:stroke fill markers"
         d="m 30.549838,44.087892 -23.5840899,0.05581 v 4.486548 c 0.4010611,-0.231548 1.2169622,-0.56069 1.6267741,-0.56069 h 6.0569948 v 25.882658 c 0,0.42063 -0.190608,1.112985 -0.448552,1.766817 h 9.113656 C 23.056745,75.06518 22.753932,74.386895 22.753932,73.952219 V 48.069561 h 6.169132 c 0.560165,0.01945 1.189878,0.308448 1.626774,0.56069 z m 9.547738,5.447213 c -6.672886,-6e-5 -12.082225,5.409062 -12.082467,12.08195 -6.1e-5,6.6731 5.409367,12.083044 12.082467,12.082983 6.673101,6.1e-5 12.082527,-5.409883 12.082467,-12.082983 -2.43e-4,-6.672888 -5.40958,-12.08201 -12.082467,-12.08195 z m 116.416664,0 c -6.67288,-6e-5 -12.08274,5.409062 -12.08298,12.08195 -5e-5,6.6731 5.40989,12.083044 12.08298,12.082983 6.67312,6.1e-5 12.08254,-5.409883 12.08247,-12.082983 -2.4e-4,-6.672888 -5.40957,-12.08201 -12.08247,-12.08195 z M 55.197946,50.088043 c 0.203483,0.327666 0.414119,1.065056 0.420646,1.280542 v 20.490739 c -0.0066,0.215485 -0.217163,0.951838 -0.420646,1.279508 H 68.32221 c 5.047545,0 7.711157,-3.392695 7.711157,-6.757727 0,-2.80419 -1.576361,-4.64862 -5.467883,-6.702433 5.606071,-2.003368 4.76705,-9.590629 -1.682585,-9.590629 z m 61.720784,0 -17.027388,0.01602 c 0.203478,0.327667 0.414128,1.06454 0.420648,1.280026 V 71.87431 c -0.007,0.215486 -0.21717,0.952356 -0.420648,1.280025 H 118.15224 V 64.99411 c -0.37836,0.257295 -1.34698,0.561722 -2.60397,0.561722 h -8.89868 v -4.011124 h 7.21248 v -3.897437 h -7.21248 v -3.589445 h 8.81083 c 0.83309,0 1.13471,0.261718 1.45831,0.448552 z m 4.90771,0 c 0.20348,0.327669 0.41412,1.064539 0.42064,1.280025 V 71.85829 c -0.006,0.215486 -0.21716,0.952874 -0.42064,1.280542 h 7.15047 c -0.10588,-0.183485 -0.39223,-1.133078 -0.39223,-1.289844 v -11.27218 c 0.45404,0.181924 0.90899,0.420453 1.36323,0.603064 3.37377,1.742027 5.2074,5.844486 4.83433,11.987899 l 8.52454,-0.05684 c -0.24805,-0.476965 -0.42468,-0.833558 -0.58911,-2.103231 -0.33651,-2.944401 -0.0835,-7.991819 -5.8322,-11.160559 6.03033,-2.154979 5.07505,-9.75866 -1.37408,-9.759094 z m 49.80213,0 c 0.20348,0.327668 0.41411,1.064539 0.42064,1.280025 v 20.491256 c -0.006,0.215485 -0.21716,0.951325 -0.42064,1.278991 h 6.33759 c -0.23093,-0.317136 -0.47645,-1.438875 -0.47645,-1.569413 V 60.547869 l 7.62744,12.590446 8.18761,5.17e-4 c -0.20349,-0.327665 -0.41411,-1.064019 -0.42064,-1.279508 V 51.368068 c 0.006,-0.215489 0.21715,-0.951846 0.42064,-1.279508 h -6.33708 c 0.23093,0.317138 0.47646,1.439398 0.47646,1.56993 V 62.006695 L 180.26525,50.08856 Z m -92.552495,5.17e-4 c 0.203482,0.327666 0.414118,1.064539 0.420646,1.280025 v 20.490739 c -0.0066,0.215485 -0.217164,0.951838 -0.420646,1.279508 h 17.372066 v -8.215519 c -0.378358,0.257297 -1.220409,0.605672 -1.71514,0.6165 H 85.834319 V 51.3629 c 0.01135,-0.222046 0.254933,-0.949322 0.490409,-1.27434 z m 135.604125,0 -17.0279,0.0155 c 0.20348,0.327667 0.41413,1.06454 0.42065,1.280026 v 20.490739 c -0.007,0.215485 -0.21717,0.951839 -0.42065,1.279508 h 18.26142 v -8.159709 c -0.37836,0.257296 -1.34751,0.561206 -2.60449,0.561206 h -8.89817 v -4.010607 h 7.21248 v -3.897437 h -7.21248 v -3.589962 h 8.81083 c 0.83309,0 1.13471,0.261718 1.45831,0.448552 z M 39.130193,53.678004 c 2.8264,0 5.118034,2.291118 5.118034,5.117518 0,2.8264 -2.291634,5.117517 -5.118034,5.117517 -2.8264,0 -5.117517,-2.291117 -5.117517,-5.117517 0,-2.8264 2.291117,-5.117518 5.117517,-5.117518 z m 116.416667,0 c 2.82641,0 5.11752,2.291118 5.11752,5.117518 0,2.8264 -2.29111,5.117517 -5.11752,5.117517 -2.8264,0 -5.11752,-2.291117 -5.11752,-5.117517 0,-2.8264 2.29112,-5.117518 5.11752,-5.117518 z m -26.96218,0.335897 h 4.6824 c 0.88305,0 1.68259,0.729875 1.68259,1.430921 0,1.27685 -1.7331,2.251883 -2.80138,2.270145 l -3.56361,-1.603519 z m -66.627973,5.17e-4 h 4.682918 c 0.883053,0 1.682585,0.729358 1.682585,1.430404 0,1.288328 -1.569057,2.21443 -2.634465,2.215368 l -3.731038,-1.548226 z m 0,6.410461 4.823478,2.001945 c 1.320316,0.762285 1.857248,1.069966 1.877921,1.85105 0,0.701049 -0.616717,1.261939 -1.738395,1.261939 h -4.963004 z" /></g></g></svg>
